<svg width="72" height="63" viewBox="0 0 72 63" fill="none" xmlns="http://www.w3.org/2000/svg">
<path d="M61.2168 45.6447C55.8412 55.755 44.9542 62.6724 32.3927 62.6724C14.5009 62.6724 0 48.6437 0 31.3378C0 14.0318 14.5009 0 32.3927 0C44.9477 0 55.838 6.91113 61.2104 17.0183L54.4189 20.3362C50.3007 12.6277 41.9835 7.35832 32.3927 7.35832C18.7032 7.35832 7.60927 18.094 7.60927 31.3346C7.60927 44.5752 18.7064 55.3109 32.3927 55.3109C41.9706 55.3109 50.2846 50.0541 54.406 42.358L61.2168 45.6447Z" fill="white"/>
<path d="M48.2998 39.3808C45.3001 44.9191 39.3006 48.6998 32.3927 48.6998C22.4787 48.6998 14.4427 40.9256 14.4427 31.3345C14.4427 21.7433 22.4787 13.9722 32.3927 13.9722C39.307 13.9722 45.3065 17.7561 48.303 23.2975L42.8046 25.9713C40.8231 22.3719 36.9021 19.9233 32.3927 19.9233C25.8793 19.9233 20.5974 25.0331 20.5974 31.3345C20.5974 37.6358 25.8793 42.7456 32.3927 42.7456C36.8891 42.7456 40.7972 40.3095 42.7852 36.732L48.2998 39.3839V39.3808Z" fill="white"/>
<path d="M35.1244 31.3377L71.8487 48.7375V13.9348L35.1244 31.3377Z" fill="white"/>
<path d="M61.3041 16.971L61.2103 17.0179L54.4156 20.3359L54.3219 20.3797" fill="white"/>
</svg>
