<svg width="155" height="43" viewBox="0 0 155 43" fill="none" xmlns="http://www.w3.org/2000/svg">
<path d="M112.304 31.3172C115.998 38.2539 123.478 43 132.108 43C144.401 43 154.364 33.3748 154.364 21.5011C154.364 9.62731 144.401 0 132.108 0C123.482 0 116 4.74178 112.309 11.6764L116.975 13.9528C119.804 8.66394 125.519 5.0486 132.108 5.0486C141.514 5.0486 149.136 12.4144 149.136 21.4989C149.136 30.5834 141.512 37.9493 132.108 37.9493C125.528 37.9493 119.816 34.3425 116.984 29.0622L112.304 31.3172Z" fill="#1B2545"/>
<path d="M121.179 27.0196C123.24 30.8194 127.362 33.4135 132.108 33.4135C138.92 33.4135 144.441 28.0795 144.441 21.4989C144.441 14.9184 138.92 9.58655 132.108 9.58655C127.358 9.58655 123.236 12.1827 121.177 15.9847L124.955 17.8192C126.316 15.3496 129.01 13.6696 132.108 13.6696C136.584 13.6696 140.213 17.1755 140.213 21.4989C140.213 25.8223 136.584 29.3282 132.108 29.3282C129.019 29.3282 126.334 27.6568 124.968 25.2022L121.179 27.0217V27.0196Z" fill="#1B2545"/>
<path d="M130.232 21.5011L105 33.4392V9.56079L130.232 21.5011Z" fill="#1B2545"/>
<path d="M112.245 11.6442L112.309 11.6763L116.977 13.9528L117.042 13.9829" fill="#1B2545"/>
<path d="M3.22 16.024C2.67867 17.2373 2.408 18.2873 2.408 19.174C2.408 19.9673 2.59467 20.5553 2.968 20.938C3.34133 21.3207 3.96667 21.512 4.844 21.512H6.23C6.80867 21.512 7.24267 21.4607 7.532 21.358C7.83067 21.2647 8.036 21.1013 8.148 20.868C8.26933 20.644 8.33933 20.322 8.358 19.902H7.168C6.272 19.902 5.56733 19.6453 5.054 19.132C4.54067 18.6093 4.284 17.8813 4.284 16.948C4.284 16.2853 4.40533 15.6973 4.648 15.184C4.89067 14.6707 5.23133 14.274 5.67 13.994C6.10867 13.7047 6.60333 13.56 7.154 13.56C7.742 13.56 8.26 13.7 8.708 13.98C9.16533 14.26 9.51533 14.6567 9.758 15.17C10.01 15.6833 10.136 16.276 10.136 16.948V19.692C10.136 20.8493 9.82333 21.778 9.198 22.478C8.57267 23.178 7.58333 23.528 6.23 23.528H4.844C3.48133 23.528 2.45 23.164 1.75 22.436C1.05 21.7173 0.7 20.6813 0.7 19.328C0.7 18.5533 0.798 17.8487 0.994 17.214C1.19 16.5793 1.41867 15.9493 1.68 15.324L3.22 16.024ZM4.984 10.83H6.65V12.51H4.984V10.83ZM5.978 16.864C5.978 17.2373 6.07133 17.5173 6.258 17.704C6.454 17.8813 6.75733 17.97 7.168 17.97H8.358V16.906C8.358 15.9353 7.95667 15.45 7.154 15.45C6.762 15.45 6.468 15.5807 6.272 15.842C6.076 16.1033 5.978 16.444 5.978 16.864ZM7.602 10.83H9.282V12.51H7.602V10.83ZM18.9198 20C18.6305 20 18.3365 19.944 18.0378 19.832C17.7485 19.72 17.4918 19.552 17.2678 19.328C17.0158 19.552 16.7311 19.72 16.4138 19.832C16.1058 19.944 15.8071 20 15.5178 20H11.5418V17.984H15.4198C16.0265 17.984 16.3298 17.6853 16.3298 17.088V10.648H18.1078V17.27C18.1078 17.522 18.1731 17.704 18.3038 17.816C18.4438 17.928 18.6491 17.984 18.9198 17.984H19.2418L19.3538 18.964L19.2418 20H18.9198ZM13.5158 10.802L13.9218 16.976L12.1298 17.102L11.7378 10.928L13.5158 10.802ZM19.098 17.984H22.024L22.136 18.964L22.024 20H19.098V17.984ZM21.8734 17.984H24.7994L24.9114 18.964L24.7994 20H21.8734V17.984ZM24.6487 17.984H27.5748L27.6868 18.964L27.5748 20H24.6487V17.984ZM27.4241 17.984H30.3501L30.4621 18.964L30.3501 20H27.4241V17.984ZM30.1995 17.984H33.1255L33.2375 18.964L33.1255 20H30.1995V17.984ZM32.9749 17.984H35.9009L36.0129 18.964L35.9009 20H32.9749V17.984ZM35.7503 17.984H38.6763L38.7883 18.964L38.6763 20H35.7503V17.984ZM38.4697 17.984H40.1497C41.027 17.984 41.853 17.872 42.6277 17.648C43.4024 17.424 44.2004 17.0927 45.0217 16.654C43.0524 15.9727 41.9044 15.632 41.5777 15.632C41.3817 15.632 41.2184 15.6927 41.0877 15.814C40.957 15.926 40.8404 16.122 40.7377 16.402L39.1697 15.898C39.3844 15.17 39.7017 14.6147 40.1217 14.232C40.5417 13.8493 41.027 13.658 41.5777 13.658C41.9604 13.658 42.5624 13.8027 43.3837 14.092C44.2144 14.3813 45.3064 14.806 46.6597 15.366L46.9257 17.564C46.0484 18.1147 45.2877 18.5533 44.6437 18.88C43.9997 19.2067 43.3044 19.4773 42.5577 19.692C41.811 19.8973 41.0084 20 40.1497 20H38.4697V17.984ZM40.7937 10.62H42.6557V12.44H40.7937V10.62ZM53.6732 11.936C53.9812 12.2813 54.2752 12.6033 54.5552 12.902C55.2458 13.658 55.7592 14.2413 56.0952 14.652C56.4405 15.0627 56.7112 15.478 56.9072 15.898C57.1032 16.3087 57.2012 16.738 57.2012 17.186C57.2012 17.718 57.0612 18.2127 56.7812 18.67C56.5012 19.118 56.1232 19.4727 55.6472 19.734C55.1805 19.9953 54.6672 20.126 54.1072 20.126C53.5378 20.126 53.0152 19.9953 52.5392 19.734C52.0632 19.4727 51.6852 19.118 51.4052 18.67C51.1252 18.2127 50.9852 17.718 50.9852 17.186C50.9852 16.542 51.1438 15.9633 51.4612 15.45C51.7878 14.9273 52.2685 14.33 52.9032 13.658L52.4272 13.14L53.6732 11.936ZM52.7632 17.018C52.7632 17.3353 52.8798 17.606 53.1132 17.83C53.3465 18.054 53.6778 18.166 54.1072 18.166C54.5272 18.166 54.8492 18.054 55.0732 17.83C55.3065 17.606 55.4232 17.3353 55.4232 17.018C55.4232 16.794 55.3252 16.542 55.1292 16.262C54.9425 15.9727 54.5972 15.5387 54.0932 14.96C53.5985 15.4827 53.2532 15.884 53.0572 16.164C52.8612 16.444 52.7632 16.7287 52.7632 17.018ZM61.6804 20C60.7004 20 59.9771 19.7153 59.5104 19.146C59.0531 18.5767 58.8244 17.8113 58.8244 16.85V10.648H60.6024V16.85C60.6024 17.2047 60.6211 17.4567 60.6584 17.606C60.7051 17.7553 60.7984 17.858 60.9384 17.914C61.0877 17.9607 61.3351 17.984 61.6804 17.984H62.1844L62.2684 19.02L62.1844 20H61.6804ZM68.6113 11.95L64.9013 13.602L66.4273 15.506C67.0339 16.2713 67.4679 16.8033 67.7293 17.102C67.9906 17.3913 68.2473 17.6107 68.4993 17.76C68.7513 17.9093 69.0406 17.984 69.3673 17.984H69.6053V20H69.3673C68.8819 20 68.4526 19.9067 68.0793 19.72C67.7153 19.524 67.3139 19.1973 66.8753 18.74C66.6793 19.132 66.3853 19.44 65.9933 19.664C65.6106 19.888 65.1439 20 64.5933 20H61.8773V17.984H64.6353C64.8779 17.984 65.0646 17.9373 65.1953 17.844C65.3259 17.7507 65.3913 17.6247 65.3913 17.466C65.3913 17.298 65.2979 17.0973 65.1113 16.864L62.9693 14.358L63.4033 12.104L67.8973 10.116L68.6113 11.95ZM63.6273 10.48L67.1273 8.954L67.3793 9.626L63.5433 11.292L63.6273 10.48ZM69.4652 17.984H72.3912L72.5032 18.964L72.3912 20H69.4652V17.984ZM72.2405 17.984H75.1665L75.2785 18.964L75.1665 20H72.2405V17.984ZM75.0159 17.984H77.9419L78.0539 18.964L77.9419 20H75.0159V17.984ZM77.7913 17.984H80.7173L80.8293 18.964L80.7173 20H77.7913V17.984ZM80.5667 17.984H83.4927L83.6047 18.964L83.4927 20H80.5667V17.984ZM83.3421 17.984H86.2681L86.3801 18.964L86.2681 20H83.3421V17.984ZM86.1175 17.984H89.0435L89.1555 18.964L89.0435 20H86.1175V17.984ZM88.8929 17.984H91.8189L91.9309 18.964L91.8189 20H88.8929V17.984ZM91.6543 17.984H93.0123C93.7309 17.984 94.0763 17.704 94.0483 17.144C94.0203 16.7333 93.8989 15.9587 93.6843 14.82L95.3503 14.4C95.6676 15.772 95.8263 16.752 95.8263 17.34C95.8263 17.7973 95.7236 18.2313 95.5183 18.642C95.3223 19.0433 95.0189 19.37 94.6083 19.622C94.2069 19.874 93.7216 20 93.1523 20H91.6543V17.984ZM92.8723 11.026H94.7343V12.846H92.8723V11.026Z" fill="#1B2545"/>
<path d="M37.27 28.92V31.74C37.27 32.64 37.0433 33.3267 36.59 33.8C36.1367 34.28 35.4833 34.52 34.63 34.52H34V33.62H34.63C35.2967 33.62 35.7733 33.4767 36.06 33.19C36.3467 32.9033 36.49 32.42 36.49 31.74V28.92H37.27ZM40.3807 32C39.7207 32 39.264 31.8233 39.0107 31.47C38.7574 31.11 38.6307 30.5833 38.6307 29.89L38.6207 25.51H39.4007L39.4107 29.89C39.4107 30.25 39.4307 30.51 39.4707 30.67C39.5174 30.83 39.604 30.9433 39.7307 31.01C39.864 31.07 40.0807 31.1 40.3807 31.1H40.5307L40.5807 31.56L40.5307 32H40.3807ZM45.1244 26.01L41.9744 27.4L43.7944 29.25C43.961 29.4233 44.0877 29.6133 44.1744 29.82C44.261 30.0267 44.3044 30.24 44.3044 30.46C44.3044 30.7267 44.2377 30.98 44.1044 31.22C43.9777 31.4533 43.791 31.6433 43.5444 31.79C43.2977 31.93 43.0044 32 42.6644 32H40.4344V31.1H42.6644C42.9577 31.1 43.181 31.0467 43.3344 30.94C43.4944 30.8333 43.5744 30.6933 43.5744 30.52C43.5744 30.3133 43.461 30.0967 43.2344 29.87L41.1244 27.75L41.3644 26.7L44.8044 25.19L45.1244 26.01ZM49.157 33.62C49.6237 33.62 49.9837 33.5633 50.237 33.45C50.497 33.3433 50.677 33.1767 50.777 32.95C50.877 32.7233 50.927 32.4233 50.927 32.05V31.99H49.827C49.267 31.99 48.8137 31.8233 48.467 31.49C48.127 31.1567 47.957 30.69 47.957 30.09C47.957 29.6833 48.0337 29.3133 48.187 28.98C48.347 28.6467 48.567 28.3833 48.847 28.19C49.1337 27.9967 49.457 27.9 49.817 27.9C50.197 27.9 50.5304 27.9933 50.817 28.18C51.1037 28.36 51.3237 28.6167 51.477 28.95C51.6304 29.2833 51.707 29.6633 51.707 30.09V32.05C51.707 32.81 51.5037 33.41 51.097 33.85C50.697 34.2967 50.0504 34.52 49.157 34.52H48.087V33.62H49.157ZM48.737 30.09C48.737 30.4567 48.8237 30.7167 48.997 30.87C49.1704 31.0167 49.447 31.09 49.827 31.09H50.927V30.09C50.927 29.6833 50.8337 29.3667 50.647 29.14C50.4604 28.9067 50.1837 28.79 49.817 28.79C49.477 28.79 49.2104 28.91 49.017 29.15C48.8304 29.3833 48.737 29.6967 48.737 30.09ZM57.0531 32C56.6931 32 56.3731 31.9233 56.0931 31.77C55.8131 31.61 55.5931 31.4 55.4331 31.14C55.2798 30.8733 55.2031 30.58 55.2031 30.26C55.2031 30.1667 55.2065 30.0967 55.2131 30.05C55.2465 29.7433 55.3565 29.2033 55.5431 28.43L56.2731 28.62C56.2598 28.68 56.2065 28.91 56.1131 29.31C56.0265 29.7033 55.9765 29.98 55.9631 30.14C55.9565 30.1733 55.9531 30.2167 55.9531 30.27C55.9531 30.53 56.0465 30.7333 56.2331 30.88C56.4265 31.0267 56.6998 31.1 57.0531 31.1H61.3731C61.7131 31.1 61.9665 31.03 62.1331 30.89C62.2998 30.75 62.3831 30.5267 62.3831 30.22V28.92H63.1631V30.34C63.1631 30.6133 63.2298 30.81 63.3631 30.93C63.4965 31.0433 63.7065 31.1 63.9931 31.1H64.3631L64.4131 31.53L64.3631 32H63.9931C63.7798 32 63.5565 31.9467 63.3231 31.84C63.0898 31.7333 62.8931 31.5733 62.7331 31.36C62.5731 31.5667 62.3698 31.7267 62.1231 31.84C61.8765 31.9467 61.6265 32 61.3731 32H57.0531ZM58.7831 33.51H59.7831V34.51H58.7831V33.51ZM68.6125 31.36C68.4792 31.5667 68.3058 31.7267 68.0925 31.84C67.8792 31.9467 67.6425 32 67.3825 32C67.1425 32 66.9025 31.9433 66.6625 31.83C66.4225 31.7167 66.2392 31.56 66.1125 31.36C65.9525 31.5733 65.7658 31.7333 65.5525 31.84C65.3392 31.9467 65.1125 32 64.8725 32H64.2625V31.1H64.8725C65.1992 31.1 65.4292 31.0367 65.5625 30.91C65.6958 30.7767 65.7625 30.5467 65.7625 30.22V28.92H66.5425V30.22C66.5425 30.54 66.6058 30.7667 66.7325 30.9C66.8658 31.0333 67.0825 31.1 67.3825 31.1C67.6892 31.1 67.9058 31.0333 68.0325 30.9C68.1658 30.7667 68.2325 30.54 68.2325 30.22V28.92H69.0125V30.22C69.0125 30.5333 69.0892 30.76 69.2425 30.9C69.3958 31.0333 69.6158 31.1 69.9025 31.1C70.2025 31.1 70.4158 31.0333 70.5425 30.9C70.6692 30.7667 70.7325 30.54 70.7325 30.22V28.92H71.5125V30.22C71.5125 30.5467 71.5792 30.7767 71.7125 30.91C71.8458 31.0367 72.0758 31.1 72.4025 31.1H73.0125L73.0625 31.55L73.0125 32H72.4025C72.1625 32 71.9358 31.9467 71.7225 31.84C71.5092 31.7333 71.3225 31.5733 71.1625 31.36C71.0358 31.56 70.8525 31.7167 70.6125 31.83C70.3725 31.9433 70.1325 32 69.8925 32C69.6592 32 69.4292 31.9467 69.2025 31.84C68.9825 31.7267 68.7858 31.5667 68.6125 31.36ZM77.6048 26.01L74.4548 27.4L76.2748 29.25C76.4415 29.4233 76.5682 29.6133 76.6548 29.82C76.7415 30.0267 76.7848 30.24 76.7848 30.46C76.7848 30.7267 76.7182 30.98 76.5848 31.22C76.4582 31.4533 76.2715 31.6433 76.0248 31.79C75.7782 31.93 75.4848 32 75.1448 32H72.9148V31.1H75.1448C75.4382 31.1 75.6615 31.0467 75.8148 30.94C75.9748 30.8333 76.0548 30.6933 76.0548 30.52C76.0548 30.3133 75.9415 30.0967 75.7148 29.87L73.6048 27.75L73.8448 26.7L77.2848 25.19L77.6048 26.01ZM82.7475 27.57C83.1542 28.01 83.4642 28.36 83.6775 28.62C83.8908 28.88 84.0608 29.1467 84.1875 29.42C84.3208 29.6867 84.3875 29.96 84.3875 30.24C84.3875 30.58 84.2975 30.89 84.1175 31.17C83.9375 31.45 83.6942 31.67 83.3875 31.83C83.0875 31.99 82.7642 32.07 82.4175 32.07C82.0642 32.07 81.7342 31.99 81.4275 31.83C81.1275 31.67 80.8875 31.45 80.7075 31.17C80.5275 30.89 80.4375 30.58 80.4375 30.24C80.4375 29.94 80.4975 29.6533 80.6175 29.38C80.7442 29.1067 80.8975 28.86 81.0775 28.64C81.2575 28.42 81.5075 28.14 81.8275 27.8L81.5775 27.52L82.1575 26.92L82.7475 27.57ZM81.2175 30.24C81.2175 30.5133 81.3242 30.7367 81.5375 30.91C81.7575 31.0833 82.0508 31.17 82.4175 31.17C82.7775 31.17 83.0642 31.0833 83.2775 30.91C83.4975 30.7367 83.6075 30.5133 83.6075 30.24C83.6075 30.02 83.5208 29.79 83.3475 29.55C83.1742 29.3033 82.8608 28.93 82.4075 28.43C81.9742 28.8833 81.6675 29.2333 81.4875 29.48C81.3075 29.7267 81.2175 29.98 81.2175 30.24ZM86.5887 33.62C87.0553 33.62 87.4153 33.5633 87.6687 33.45C87.9287 33.3433 88.1087 33.1767 88.2087 32.95C88.3087 32.7233 88.3587 32.4233 88.3587 32.05V31.99H87.2587C86.6987 31.99 86.2453 31.8233 85.8987 31.49C85.5587 31.1567 85.3887 30.69 85.3887 30.09C85.3887 29.6833 85.4653 29.3133 85.6187 28.98C85.7787 28.6467 85.9987 28.3833 86.2787 28.19C86.5653 27.9967 86.8887 27.9 87.2487 27.9C87.6287 27.9 87.962 27.9933 88.2487 28.18C88.5353 28.36 88.7553 28.6167 88.9087 28.95C89.062 29.2833 89.1387 29.6633 89.1387 30.09V32.05C89.1387 32.81 88.9353 33.41 88.5287 33.85C88.1287 34.2967 87.482 34.52 86.5887 34.52H85.5187V33.62H86.5887ZM86.1687 30.09C86.1687 30.4567 86.2553 30.7167 86.4287 30.87C86.602 31.0167 86.8787 31.09 87.2587 31.09H88.3587V30.09C88.3587 29.6833 88.2653 29.3667 88.0787 29.14C87.892 28.9067 87.6153 28.79 87.2487 28.79C86.9087 28.79 86.642 28.91 86.4487 29.15C86.262 29.3833 86.1687 29.6967 86.1687 30.09ZM92.602 28.92V30.34C92.602 30.6133 92.6687 30.81 92.802 30.93C92.9354 31.0433 93.1454 31.1 93.432 31.1H93.532L93.592 31.56L93.532 32H93.432C93.092 32 92.8154 31.9067 92.602 31.72V31.74C92.602 32.64 92.3754 33.3267 91.922 33.8C91.4687 34.28 90.8154 34.52 89.962 34.52H89.332V33.62H89.962C90.6287 33.62 91.1054 33.4767 91.392 33.19C91.6787 32.9033 91.822 32.42 91.822 31.74V28.92H92.602ZM98.1324 26.31L95.1824 27.62L96.7924 29.25C96.9591 29.4233 97.0858 29.6167 97.1724 29.83C97.2591 30.0367 97.3024 30.2467 97.3024 30.46C97.3024 30.7333 97.2358 30.9867 97.1024 31.22C96.9758 31.4533 96.7891 31.6433 96.5424 31.79C96.2958 31.93 96.0024 32 95.6624 32H93.4324V31.1H95.6624C95.9558 31.1 96.1791 31.0467 96.3324 30.94C96.4924 30.8333 96.5724 30.6933 96.5724 30.52C96.5724 30.3133 96.4591 30.0967 96.2324 29.87L94.3324 27.97L94.5724 26.92L97.8124 25.49L98.1324 26.31ZM94.6624 25.8L97.2924 24.65L97.4424 25.03L94.6124 26.27L94.6624 25.8Z" fill="#1B2545"/>
</svg>
