<svg width="884" height="472" viewBox="0 0 884 472" fill="none" xmlns="http://www.w3.org/2000/svg">
<path d="M11.466 240.245C11.502 240.341 11.532 240.443 11.556 240.551C11.58 240.659 11.592 240.803 11.592 240.983V241.541C11.592 242.129 11.406 242.639 11.034 243.071C10.662 243.515 10.17 243.857 9.558 244.097C8.946 244.337 8.304 244.457 7.632 244.457H4.284C3.504 244.457 2.784 244.265 2.124 243.881C1.476 243.509 0.959997 242.993 0.575997 242.333C0.191997 241.685 -2.86102e-06 240.971 -2.86102e-06 240.191V235.187H2.412V239.849C2.412 240.341 2.586 240.761 2.934 241.109C3.282 241.457 3.702 241.631 4.194 241.631H8.316C8.592 241.631 8.808 241.559 8.964 241.415C9.12 241.271 9.198 241.073 9.198 240.821V240.245H5.328V237.437H12.6C12.768 237.437 12.852 237.509 12.852 237.653V239.975C12.852 240.047 12.828 240.113 12.78 240.173C12.732 240.221 12.672 240.245 12.6 240.245H11.466ZM12.6017 240.245C12.5417 240.245 12.4877 240.221 12.4397 240.173C12.3797 240.113 12.3497 240.053 12.3497 239.993V237.725C12.3497 237.653 12.3737 237.587 12.4217 237.527C12.4697 237.467 12.5297 237.437 12.6017 237.437H16.0217C16.2017 237.437 16.3517 237.377 16.4717 237.257C16.5917 237.137 16.6517 236.987 16.6517 236.807V232.811H19.0457V236.771C19.0457 237.407 18.8897 237.995 18.5777 238.535C18.2657 239.063 17.8457 239.483 17.3177 239.795C16.7897 240.095 16.2077 240.245 15.5717 240.245H12.6017ZM16.3637 242.405H18.7397V244.763H16.3637V242.405ZM13.0697 242.405H15.4277V244.763H13.0697V242.405ZM20.6016 227.645H23.0136V240.245H20.6016V227.645ZM24.6087 242.567L26.4627 241.595C26.7987 241.415 27.0567 241.163 27.2367 240.839C27.4167 240.527 27.5067 240.107 27.5067 239.579V233.369H29.9187V236.933C29.9187 237.077 29.9787 237.197 30.0987 237.293C30.2307 237.389 30.3747 237.437 30.5307 237.437H31.3407C31.4367 237.437 31.5027 237.455 31.5387 237.491C31.5747 237.527 31.5927 237.587 31.5927 237.671V239.993C31.5927 240.161 31.5087 240.245 31.3407 240.245H30.9087C30.7287 240.245 30.5427 240.209 30.3507 240.137C30.1707 240.065 30.0207 239.951 29.9007 239.795V240.047C29.9007 240.851 29.6967 241.547 29.2887 242.135C28.8807 242.723 28.2927 243.233 27.5247 243.665L25.7247 244.691L24.6087 242.567ZM27.5607 229.589H29.9187L29.9007 231.947H27.5607V229.589ZM31.34 240.245C31.268 240.245 31.208 240.221 31.16 240.173C31.112 240.113 31.088 240.047 31.088 239.975V237.671C31.088 237.611 31.112 237.557 31.16 237.509C31.208 237.461 31.268 237.437 31.34 237.437H36.578C36.734 237.437 36.866 237.383 36.974 237.275C37.094 237.155 37.154 237.017 37.154 236.861V236.357C36.758 236.489 36.35 236.555 35.93 236.555H35.192C34.616 236.555 34.088 236.417 33.608 236.141C33.14 235.865 32.768 235.493 32.492 235.025C32.228 234.557 32.096 234.047 32.096 233.495C32.096 233.291 32.114 233.093 32.15 232.901L32.42 231.479C32.552 230.759 32.9 230.165 33.464 229.697C34.028 229.229 34.682 228.995 35.426 228.995H36.398C36.974 228.995 37.496 229.139 37.964 229.427C38.444 229.703 38.822 230.087 39.098 230.579C39.374 231.059 39.512 231.581 39.512 232.145V236.789C39.512 237.425 39.356 238.007 39.044 238.535C38.732 239.063 38.312 239.483 37.784 239.795C37.256 240.095 36.68 240.245 36.056 240.245H31.34ZM37.154 233.855V232.127C37.154 231.995 37.112 231.887 37.028 231.803C36.956 231.719 36.86 231.677 36.74 231.677H35.156C35.048 231.677 34.946 231.719 34.85 231.803C34.766 231.875 34.718 231.971 34.706 232.091L34.472 233.441V233.495C34.472 233.591 34.502 233.675 34.562 233.747C34.634 233.819 34.712 233.855 34.796 233.855H37.154ZM34.904 225.233H37.262L37.244 227.591H34.904V225.233ZM41.0449 227.645H43.4569V240.245H41.0449V227.645ZM50.9183 243.359C50.1623 243.359 49.4543 243.161 48.7943 242.765C48.1463 242.381 47.6243 241.859 47.2283 241.199C46.8443 240.551 46.6523 239.849 46.6523 239.093V233.603H49.0643V238.751C49.0643 239.243 49.2323 239.669 49.5683 240.029C49.9163 240.377 50.3363 240.551 50.8283 240.551H54.1223C54.5183 240.551 54.8483 240.413 55.1123 240.137C55.3763 239.849 55.5083 239.501 55.5083 239.093V233.333H57.9203V236.861C57.9203 237.017 57.9803 237.155 58.1003 237.275C58.2323 237.383 58.3763 237.437 58.5323 237.437H59.1263C59.3183 237.437 59.4803 237.383 59.6123 237.275C59.7563 237.155 59.8403 236.999 59.8643 236.807L60.5663 233.333L62.9783 233.765L62.3843 236.717C62.3483 236.909 62.3843 237.077 62.4923 237.221C62.6123 237.365 62.7743 237.437 62.9783 237.437H64.3823V232.775H66.7763V237.743C66.7763 238.187 66.6623 238.601 66.4343 238.985C66.2063 239.369 65.9003 239.675 65.5163 239.903C65.1323 240.131 64.7183 240.245 64.2743 240.245H63.0863C62.1743 240.245 61.4903 239.915 61.0343 239.255C60.7583 239.615 60.4523 239.873 60.1163 240.029C59.7923 240.173 59.4203 240.245 59.0003 240.245C58.4963 240.245 58.1303 240.095 57.9023 239.795V240.119C57.9023 240.683 57.7283 241.211 57.3803 241.703C57.0443 242.207 56.5823 242.609 55.9943 242.909C55.4183 243.209 54.7943 243.359 54.1223 243.359H50.9183ZM71.7282 240.245C71.1042 240.245 70.5342 240.095 70.0182 239.795C69.5022 239.495 69.0882 239.087 68.7762 238.571C68.4762 238.043 68.3262 237.473 68.3262 236.861V227.645H70.7382V236.807C70.7382 236.987 70.7922 237.137 70.9002 237.257C71.0202 237.377 71.1702 237.437 71.3502 237.437H72.2502C72.3222 237.437 72.3822 237.467 72.4302 237.527C72.4782 237.575 72.5022 237.635 72.5022 237.707V239.993C72.5022 240.161 72.4182 240.245 72.2502 240.245H71.7282ZM72.2443 240.245C72.1723 240.245 72.1123 240.221 72.0643 240.173C72.0163 240.113 71.9923 240.053 71.9923 239.993V237.707C71.9923 237.635 72.0163 237.575 72.0643 237.527C72.1123 237.467 72.1723 237.437 72.2443 237.437H73.1083L73.5403 237.455C73.2883 236.951 73.1623 236.441 73.1623 235.925V235.385C73.1623 234.725 73.3303 234.113 73.6663 233.549C74.0023 232.985 74.4463 232.541 74.9983 232.217C75.5503 231.881 76.1323 231.713 76.7443 231.713H77.0863C77.7223 231.713 78.3103 231.875 78.8503 232.199C79.3903 232.511 79.8163 232.937 80.1283 233.477C80.4523 234.017 80.6143 234.605 80.6143 235.241V235.925C80.6143 236.417 80.4883 236.927 80.2363 237.455L80.6683 237.437H81.5323C81.6043 237.437 81.6643 237.467 81.7123 237.527C81.7603 237.575 81.7843 237.635 81.7843 237.707V239.993C81.7843 240.053 81.7603 240.113 81.7123 240.173C81.6643 240.221 81.6043 240.245 81.5323 240.245H80.7763C80.0803 240.245 79.4443 240.191 78.8683 240.083C78.3043 239.963 77.6383 239.753 76.8703 239.453C76.1023 239.753 75.4363 239.963 74.8723 240.083C74.3083 240.191 73.6783 240.245 72.9823 240.245H72.2443ZM76.8703 237.131C77.2903 236.975 77.6203 236.807 77.8603 236.627C78.1123 236.447 78.2383 236.267 78.2383 236.087V235.583C78.2383 235.271 78.1243 235.007 77.8963 234.791C77.6683 234.575 77.3863 234.467 77.0503 234.467H76.6543C76.3303 234.467 76.0603 234.575 75.8443 234.791C75.6283 235.007 75.5203 235.271 75.5203 235.583V236.087C75.5203 236.267 75.6403 236.453 75.8803 236.645C76.1203 236.825 76.4503 236.987 76.8703 237.131ZM77.3203 227.951H79.6963V230.309H77.3203V227.951ZM74.0263 227.951H76.3843V230.309H74.0263V227.951ZM81.5255 240.245C81.4655 240.245 81.4115 240.221 81.3635 240.173C81.3035 240.113 81.2735 240.053 81.2735 239.993V237.689C81.2735 237.521 81.3575 237.437 81.5255 237.437H82.1015C82.2815 237.437 82.4375 237.383 82.5695 237.275C82.7135 237.167 82.8035 237.023 82.8395 236.843L83.1995 234.989C83.3195 234.281 83.6675 233.693 84.2435 233.225C84.8195 232.757 85.4675 232.523 86.1875 232.523H87.1955C87.7715 232.523 88.2995 232.667 88.7795 232.955C89.2715 233.243 89.6615 233.633 89.9495 234.125C90.2375 234.605 90.3815 235.133 90.3815 235.709V237.743C90.3815 238.187 90.2675 238.601 90.0395 238.985C89.8115 239.369 89.5055 239.675 89.1215 239.903C88.7375 240.131 88.3235 240.245 87.8795 240.245H85.8635C85.0475 240.245 84.3995 239.927 83.9195 239.291C83.6435 239.639 83.3435 239.885 83.0195 240.029C82.6955 240.173 82.3295 240.245 81.9215 240.245H81.5255ZM87.9875 237.437V235.691C87.9875 235.571 87.9455 235.469 87.8615 235.385C87.7775 235.289 87.6755 235.241 87.5555 235.241H85.9535C85.7255 235.241 85.5815 235.367 85.5215 235.619L85.2155 237.059V237.113C85.2155 237.197 85.2455 237.275 85.3055 237.347C85.3775 237.407 85.4555 237.437 85.5395 237.437H87.9875Z" fill="white"/>
<path d="M791.106 236.745L146.106 236.745" stroke="white" stroke-width="4" stroke-linecap="round"/>
<path d="M362.734 352.911C362.734 352.911 390.612 315.045 408.606 294.745C428.105 272.745 437.835 263.081 460.105 241.744C480.938 221.784 492.029 212.47 512.606 192.245C535.433 169.809 570.106 110.745 570.106 110.745" stroke="white" stroke-width="6" stroke-linecap="round"/>
<path d="M567.106 345.744C567.106 345.744 543.854 312.816 525.606 292.744C499.697 264.244 495.606 263.244 475.106 242.744C447.638 215.276 426.606 195.744 407.106 174.244C387.606 152.744 368.606 108.245 368.606 108.245" stroke="white" stroke-width="6" stroke-linecap="round"/>
<circle cx="469.106" cy="230.245" r="35" fill="#0F172A"/>
<g clip-path="url(#clip0_0_420)">
<path d="M465.272 230.244C465.272 231.261 465.676 232.236 466.395 232.955C467.114 233.674 468.089 234.078 469.106 234.078C470.122 234.078 471.097 233.674 471.816 232.955C472.535 232.236 472.939 231.261 472.939 230.244C472.939 229.228 472.535 228.253 471.816 227.534C471.097 226.815 470.122 226.411 469.106 226.411C468.089 226.411 467.114 226.815 466.395 227.534C465.676 228.253 465.272 229.228 465.272 230.244Z" stroke="white" stroke-width="3.83333" stroke-linecap="round" stroke-linejoin="round"/>
<path d="M486.356 230.245C481.756 237.911 476.006 241.745 469.106 241.745C462.206 241.745 456.456 237.911 451.856 230.245C456.456 222.578 462.206 218.745 469.106 218.745C476.006 218.745 481.756 222.578 486.356 230.245Z" stroke="white" stroke-width="3.83333" stroke-linecap="round" stroke-linejoin="round"/>
</g>
<circle cx="368.106" cy="74.245" r="25" fill="#68AEFF" fill-opacity="0.35"/>
<g clip-path="url(#clip1_0_420)">
<path d="M355.784 72.5072C355.784 73.7657 356.032 75.0118 356.514 76.1745C356.996 77.3372 357.701 78.3937 358.591 79.2836C359.481 80.1735 360.538 80.8794 361.7 81.361C362.863 81.8426 364.109 82.0905 365.368 82.0905C366.626 82.0905 367.872 81.8426 369.035 81.361C370.198 80.8794 371.254 80.1735 372.144 79.2836C373.034 78.3937 373.74 77.3372 374.222 76.1745C374.703 75.0118 374.951 73.7657 374.951 72.5072C374.951 71.2487 374.703 70.0025 374.222 68.8398C373.74 67.6771 373.034 66.6206 372.144 65.7307C371.254 64.8408 370.198 64.1349 369.035 63.6533C367.872 63.1717 366.626 62.9238 365.368 62.9238C364.109 62.9238 362.863 63.1717 361.7 63.6533C360.538 64.1349 359.481 64.8408 358.591 65.7307C357.701 66.6206 356.996 67.6771 356.514 68.8398C356.032 70.0025 355.784 71.2487 355.784 72.5072Z" stroke="white" stroke-width="2" stroke-linecap="round" stroke-linejoin="round"/>
<path d="M380.427 87.5663L372.213 79.3521" stroke="white" stroke-width="2" stroke-linecap="round" stroke-linejoin="round"/>
</g>
<circle cx="368.106" cy="393.245" r="25" fill="#EC4899" fill-opacity="0.2"/>
<g clip-path="url(#clip2_0_420)">
<path d="M379.058 387.085V399.406L373.582 402.487L368.106 405.567L362.629 402.487L357.153 399.406V387.085L362.629 384.005L368.106 380.924L373.582 384.005L379.058 387.085Z" stroke="white" stroke-width="2" stroke-linecap="round" stroke-linejoin="round"/>
<path d="M368.105 393.246L373.582 390.165L379.058 387.085" stroke="white" stroke-width="2" stroke-linecap="round" stroke-linejoin="round"/>
<path d="M368.105 393.246V405.567" stroke="white" stroke-width="2" stroke-linecap="round" stroke-linejoin="round"/>
<path d="M368.106 393.246L362.629 390.165L357.153 387.085" stroke="white" stroke-width="2" stroke-linecap="round" stroke-linejoin="round"/>
<path d="M379.058 393.246L373.582 395.984V402.487" stroke="white" stroke-width="2" stroke-linecap="round" stroke-linejoin="round"/>
<path d="M357.153 393.246L362.629 395.984V402.487" stroke="white" stroke-width="2" stroke-linecap="round" stroke-linejoin="round"/>
<path d="M362.629 384.005L368.105 387.085L373.582 384.005" stroke="white" stroke-width="2" stroke-linecap="round" stroke-linejoin="round"/>
</g>
<circle cx="570.106" cy="388.245" r="25" fill="#10B981" fill-opacity="0.35"/>
<g clip-path="url(#clip3_0_420)">
<path d="M565.998 375.924H574.213" stroke="white" stroke-width="2" stroke-linecap="round" stroke-linejoin="round"/>
<path d="M567.367 384.138H572.844" stroke="white" stroke-width="2" stroke-linecap="round" stroke-linejoin="round"/>
<path d="M567.367 375.924V384.138L561.891 399.198C561.825 399.331 561.791 399.477 561.791 399.626C561.791 399.774 561.826 399.92 561.892 400.053C561.958 400.186 562.055 400.301 562.173 400.391C562.292 400.48 562.43 400.54 562.576 400.567H577.635C577.781 400.54 577.919 400.48 578.037 400.391C578.156 400.301 578.252 400.186 578.319 400.053C578.385 399.92 578.42 399.774 578.42 399.626C578.42 399.477 578.386 399.331 578.32 399.198L572.843 384.138V375.924" stroke="white" stroke-width="2" stroke-linecap="round" stroke-linejoin="round"/>
</g>
<path d="M558.106 43.2448C558.106 43.2448 531.606 12.7448 468.606 10.7448C405.606 8.74475 380.606 43.2444 380.606 43.2444" stroke="white" stroke-width="4" stroke-linecap="round"/>
<path d="M557.606 428.245C557.606 428.245 531.106 458.745 468.106 460.745C405.106 462.745 380.106 428.246 380.106 428.246" stroke="white" stroke-width="4" stroke-linecap="round"/>
<path d="M463.003 21.6276L472.959 11.6202L462.952 1.6637" stroke="white" stroke-width="3.32734" stroke-linecap="round" stroke-linejoin="round"/>
<path d="M462.503 449.863L472.459 459.87L462.452 469.827" stroke="white" stroke-width="3.32734" stroke-linecap="round" stroke-linejoin="round"/>
<path d="M822.279 256.438L803.953 236.418L823.973 218.091" stroke="white" stroke-width="3.32734" stroke-linecap="round" stroke-linejoin="round"/>
<path d="M141.279 255.434L122.953 235.413L142.973 217.087" stroke="white" stroke-width="3.32734" stroke-linecap="round" stroke-linejoin="round"/>
<path d="M120.279 255.434L101.953 235.413L121.973 217.087" stroke="white" stroke-width="3.32734" stroke-linecap="round" stroke-linejoin="round"/>
<path d="M846.749 240.245C846.785 240.341 846.815 240.443 846.839 240.551C846.863 240.659 846.875 240.803 846.875 240.983V241.541C846.875 242.129 846.689 242.639 846.317 243.071C845.945 243.515 845.453 243.857 844.841 244.097C844.229 244.337 843.587 244.457 842.915 244.457H839.567C838.787 244.457 838.067 244.265 837.407 243.881C836.759 243.509 836.243 242.993 835.859 242.333C835.475 241.685 835.283 240.971 835.283 240.191V235.187H837.695V239.849C837.695 240.341 837.869 240.761 838.217 241.109C838.565 241.457 838.985 241.631 839.477 241.631H843.599C843.875 241.631 844.091 241.559 844.247 241.415C844.403 241.271 844.481 241.073 844.481 240.821V240.245H840.611V237.437H847.883C848.051 237.437 848.135 237.509 848.135 237.653V239.975C848.135 240.047 848.111 240.113 848.063 240.173C848.015 240.221 847.955 240.245 847.883 240.245H846.749ZM847.885 240.245C847.825 240.245 847.771 240.221 847.723 240.173C847.663 240.113 847.633 240.047 847.633 239.975V237.689C847.633 237.629 847.663 237.575 847.723 237.527C847.771 237.467 847.825 237.437 847.885 237.437H850.405C850.801 237.437 851.131 237.287 851.395 236.987C851.671 236.675 851.809 236.333 851.809 235.961C851.809 235.697 851.737 235.469 851.593 235.277L848.443 231.011V229.409L854.851 226.205L855.895 228.275L850.891 230.759L853.339 233.927C853.867 234.587 854.131 235.361 854.131 236.249C854.131 236.933 853.963 237.581 853.627 238.193C853.291 238.805 852.823 239.303 852.223 239.687C851.635 240.059 850.963 240.245 850.207 240.245H847.885ZM847.597 226.907L848.335 228.545L854.401 225.467L853.663 223.829L847.597 226.907ZM858.83 240.245C858.362 240.245 857.924 240.131 857.516 239.903C857.108 239.663 856.784 239.345 856.544 238.949C856.316 238.541 856.202 238.097 856.202 237.617V235.043H858.236V237.131C858.236 237.215 858.266 237.287 858.326 237.347C858.386 237.407 858.452 237.437 858.524 237.437H861.548C861.824 237.437 862.052 237.347 862.232 237.167C862.412 236.975 862.502 236.753 862.502 236.501C862.502 236.309 862.454 236.135 862.358 235.979L860.054 231.857L862.088 230.561L864.572 234.971C864.86 235.463 865.004 236.015 865.004 236.627C865.004 237.239 864.854 237.827 864.554 238.391C864.254 238.943 863.84 239.393 863.312 239.741C862.784 240.077 862.202 240.245 861.566 240.245H858.83ZM869.922 240.245C869.298 240.245 868.728 240.095 868.212 239.795C867.696 239.495 867.282 239.087 866.97 238.571C866.67 238.043 866.52 237.473 866.52 236.861V227.645H868.932V236.807C868.932 236.987 868.986 237.137 869.094 237.257C869.214 237.377 869.364 237.437 869.544 237.437H870.444C870.516 237.437 870.576 237.467 870.624 237.527C870.672 237.575 870.696 237.635 870.696 237.707V239.993C870.696 240.161 870.612 240.245 870.444 240.245H869.922ZM870.438 240.245C870.378 240.245 870.324 240.221 870.276 240.173C870.216 240.113 870.186 240.053 870.186 239.993V237.689C870.186 237.521 870.27 237.437 870.438 237.437H871.014C871.194 237.437 871.35 237.383 871.482 237.275C871.626 237.167 871.716 237.023 871.752 236.843L872.112 234.989C872.232 234.281 872.58 233.693 873.156 233.225C873.732 232.757 874.38 232.523 875.1 232.523H876.108C876.684 232.523 877.212 232.667 877.692 232.955C878.184 233.243 878.574 233.633 878.862 234.125C879.15 234.605 879.294 235.133 879.294 235.709V237.743C879.294 238.187 879.18 238.601 878.952 238.985C878.724 239.369 878.418 239.675 878.034 239.903C877.65 240.131 877.236 240.245 876.792 240.245H874.776C873.96 240.245 873.312 239.927 872.832 239.291C872.556 239.639 872.256 239.885 871.932 240.029C871.608 240.173 871.242 240.245 870.834 240.245H870.438ZM876.9 237.437V235.691C876.9 235.571 876.858 235.469 876.774 235.385C876.69 235.289 876.588 235.241 876.468 235.241H874.866C874.638 235.241 874.494 235.367 874.434 235.619L874.128 237.059V237.113C874.128 237.197 874.158 237.275 874.218 237.347C874.29 237.407 874.368 237.437 874.452 237.437H876.9ZM880.846 227.645H883.258V240.245H880.846V227.645Z" fill="white"/>
<circle cx="570.106" cy="77.2448" r="23.5" fill="#F97316" fill-opacity="0.35" stroke="white" stroke-width="3"/>
<g clip-path="url(#clip4_0_420)">
<path d="M557.784 77.2449H559.153M570.106 64.9235V66.2925M581.058 77.2449H582.427M561.344 68.483L562.302 69.4413M578.868 68.483L577.909 69.4413" stroke="white" stroke-width="2" stroke-linecap="round" stroke-linejoin="round"/>
<path d="M565.999 82.7211C564.849 81.8591 564 80.6573 563.572 79.2859C563.143 77.9146 563.157 76.4432 563.612 75.0802C564.066 73.7173 564.938 72.5318 566.103 71.6918C567.269 70.8517 568.669 70.3997 570.106 70.3997C571.542 70.3997 572.943 70.8517 574.108 71.6918C575.274 72.5318 576.145 73.7173 576.6 75.0802C577.054 76.4432 577.068 77.9146 576.64 79.2859C576.211 80.6573 575.362 81.8591 574.213 82.7211C573.678 83.2502 573.276 83.8977 573.038 84.6112C572.8 85.3247 572.734 86.0842 572.844 86.8282C572.844 87.5544 572.555 88.2509 572.042 88.7644C571.528 89.2778 570.832 89.5663 570.106 89.5663C569.38 89.5663 568.683 89.2778 568.17 88.7644C567.656 88.2509 567.368 87.5544 567.368 86.8282C567.478 86.0842 567.411 85.3247 567.173 84.6112C566.936 83.8977 566.533 83.2502 565.999 82.7211Z" stroke="white" stroke-width="2" stroke-linecap="round" stroke-linejoin="round"/>
<path d="M567.106 84.245H573.403" stroke="white" stroke-width="2" stroke-linecap="round" stroke-linejoin="round"/>
</g>
<path d="M616.421 74.703C616.949 74.835 617.375 75.111 617.699 75.531C618.023 75.951 618.185 76.437 618.185 76.989V77.457C618.185 78.165 618.005 78.819 617.645 79.419C617.297 80.031 616.823 80.517 616.223 80.877C615.623 81.237 614.963 81.417 614.243 81.417H610.661C609.881 81.417 609.161 81.225 608.501 80.841C607.853 80.457 607.337 79.935 606.953 79.275C606.569 78.627 606.377 77.913 606.377 77.133V73.029H608.789V76.809C608.789 77.313 608.963 77.739 609.311 78.087C609.659 78.435 610.079 78.609 610.571 78.609H614.567C614.915 78.609 615.203 78.483 615.431 78.231C615.671 77.991 615.791 77.697 615.791 77.349V77.007L610.679 75.783V73.569C610.679 72.921 610.829 72.309 611.129 71.733C611.429 71.157 611.837 70.683 612.353 70.311C612.881 69.939 613.475 69.711 614.135 69.627L616.889 69.267L617.195 71.751L614.135 72.147C613.799 72.195 613.523 72.333 613.307 72.561C613.103 72.777 613.001 73.047 613.001 73.371V73.893L616.421 74.703ZM618.312 80.067L620.166 79.095C620.502 78.915 620.76 78.663 620.94 78.339C621.12 78.027 621.21 77.607 621.21 77.079V70.869H623.622V76.971C623.622 77.943 623.43 78.765 623.046 79.437C622.662 80.121 622.056 80.697 621.228 81.165L619.428 82.191L618.312 80.067ZM621.174 67.089H623.532L623.514 69.447H621.174V67.089ZM625.273 65.145H627.685V77.745H625.273V65.145ZM631.893 77.745C631.425 77.745 630.987 77.631 630.579 77.403C630.171 77.163 629.847 76.845 629.607 76.449C629.379 76.041 629.265 75.597 629.265 75.117V72.543H631.299V74.631C631.299 74.715 631.329 74.787 631.389 74.847C631.449 74.907 631.515 74.937 631.587 74.937H634.611C634.887 74.937 635.115 74.847 635.295 74.667C635.475 74.475 635.565 74.253 635.565 74.001C635.565 73.809 635.517 73.635 635.421 73.479L633.117 69.357L635.151 68.061L637.635 72.471C637.923 72.963 638.067 73.515 638.067 74.127C638.067 74.739 637.917 75.327 637.617 75.891C637.317 76.443 636.903 76.893 636.375 77.241C635.847 77.577 635.265 77.745 634.629 77.745H631.893ZM636.241 80.175L639.049 79.257C639.457 79.125 639.787 78.879 640.039 78.519C640.303 78.171 640.435 77.769 640.435 77.313V70.815H642.847V74.433C642.847 74.577 642.907 74.697 643.027 74.793C643.159 74.889 643.303 74.937 643.459 74.937H644.269C644.437 74.937 644.521 75.015 644.521 75.171V77.493C644.521 77.661 644.437 77.745 644.269 77.745H643.819C643.639 77.745 643.459 77.709 643.279 77.637C643.099 77.565 642.949 77.451 642.829 77.295V77.547C642.829 78.423 642.529 79.221 641.929 79.941C641.341 80.673 640.597 81.189 639.697 81.489L636.979 82.407L636.241 80.175ZM644.274 77.745C644.214 77.745 644.16 77.721 644.112 77.673C644.052 77.613 644.022 77.553 644.022 77.493V75.225C644.022 75.153 644.046 75.087 644.094 75.027C644.142 74.967 644.202 74.937 644.274 74.937H647.694C647.874 74.937 648.024 74.877 648.144 74.757C648.264 74.637 648.324 74.487 648.324 74.307V70.311H650.718V74.271C650.718 74.907 650.562 75.495 650.25 76.035C649.938 76.563 649.518 76.983 648.99 77.295C648.462 77.595 647.88 77.745 647.244 77.745H644.274ZM647.928 79.905H650.304V82.263H647.928V79.905ZM646.236 82.929H648.612V85.305H646.236V82.929ZM644.634 79.905H646.992V82.263H644.634V79.905ZM657.526 77.961C656.794 77.961 656.152 77.787 655.6 77.439C655.06 77.079 654.646 76.617 654.358 76.053C654.07 75.489 653.926 74.907 653.926 74.307V73.785C653.926 73.185 654.07 72.645 654.358 72.165C654.658 71.685 655.018 71.331 655.438 71.103L655.654 70.959L654.43 70.149L655.726 68.187C655.93 68.283 657.394 69.237 660.118 71.049C660.634 71.373 661.006 71.769 661.234 72.237C661.474 72.705 661.594 73.197 661.594 73.713V74.307C661.594 74.919 661.45 75.507 661.162 76.071C660.874 76.635 660.448 77.091 659.884 77.439C659.332 77.787 658.672 77.961 657.904 77.961H657.526ZM658.264 75.243C658.564 75.243 658.792 75.153 658.948 74.973C659.116 74.781 659.2 74.607 659.2 74.451V73.659C659.2 73.407 659.08 73.197 658.84 73.029L658.138 72.615C657.826 72.423 657.634 72.309 657.562 72.273L656.644 73.047C656.548 73.119 656.47 73.191 656.41 73.263C656.362 73.335 656.338 73.443 656.338 73.587V74.379C656.338 74.583 656.422 74.781 656.59 74.973C656.758 75.153 656.974 75.243 657.238 75.243H658.264ZM672.983 74.937C673.043 74.937 673.097 74.967 673.145 75.027C673.205 75.075 673.235 75.135 673.235 75.207V77.493C673.235 77.565 673.211 77.625 673.163 77.673C673.115 77.721 673.055 77.745 672.983 77.745H672.641C672.173 77.745 671.717 77.625 671.273 77.385C670.841 77.145 670.499 76.851 670.247 76.503C670.043 76.911 669.749 77.223 669.365 77.439C668.981 77.643 668.555 77.745 668.087 77.745H665.783C665.315 77.745 664.877 77.631 664.469 77.403C664.073 77.163 663.755 76.845 663.515 76.449C663.287 76.041 663.173 75.597 663.173 75.117V72.525H665.171V74.613C665.171 74.697 665.201 74.775 665.261 74.847C665.333 74.907 665.411 74.937 665.495 74.937H668.123C668.387 74.937 668.615 74.853 668.807 74.685C669.011 74.517 669.113 74.313 669.113 74.073C669.113 74.037 669.101 73.971 669.077 73.875L667.565 68.475L669.851 67.647L671.741 74.361C671.777 74.529 671.855 74.667 671.975 74.775C672.107 74.883 672.251 74.937 672.407 74.937H672.983ZM672.979 77.745C672.919 77.745 672.865 77.721 672.817 77.673C672.757 77.613 672.727 77.553 672.727 77.493V75.225C672.727 75.153 672.751 75.087 672.799 75.027C672.847 74.967 672.907 74.937 672.979 74.937H676.399C676.579 74.937 676.729 74.877 676.849 74.757C676.969 74.637 677.029 74.487 677.029 74.307V70.311H679.423V74.271C679.423 74.907 679.267 75.495 678.955 76.035C678.643 76.563 678.223 76.983 677.695 77.295C677.167 77.595 676.585 77.745 675.949 77.745H672.979ZM676.741 79.905H679.117V82.263H676.741V79.905ZM673.447 79.905H675.805V82.263H673.447V79.905ZM680.979 65.145H683.391V77.745H680.979V65.145Z" fill="white"/>
<path d="M620.986 393.745C621.022 393.841 621.052 393.943 621.076 394.051C621.1 394.159 621.112 394.303 621.112 394.483V395.041C621.112 395.629 620.926 396.139 620.554 396.571C620.182 397.015 619.69 397.357 619.078 397.597C618.466 397.837 617.824 397.957 617.152 397.957H613.804C613.024 397.957 612.304 397.765 611.644 397.381C610.996 397.009 610.48 396.493 610.096 395.833C609.712 395.185 609.52 394.471 609.52 393.691V388.687H611.932V393.349C611.932 393.841 612.106 394.261 612.454 394.609C612.802 394.957 613.222 395.131 613.714 395.131H617.836C618.112 395.131 618.328 395.059 618.484 394.915C618.64 394.771 618.718 394.573 618.718 394.321V393.745H614.848V390.937H622.12C622.288 390.937 622.372 391.009 622.372 391.153V393.475C622.372 393.547 622.348 393.613 622.3 393.673C622.252 393.721 622.192 393.745 622.12 393.745H620.986ZM622.121 393.745C621.953 393.745 621.869 393.661 621.869 393.493V391.207C621.869 391.147 621.899 391.087 621.959 391.027C622.007 390.967 622.061 390.937 622.121 390.937H625.577C626.813 390.937 627.683 390.607 628.187 389.947L628.871 389.047L629.105 388.795L625.559 387.751C625.523 387.739 625.481 387.733 625.433 387.733C625.349 387.733 625.289 387.787 625.253 387.895L624.533 389.821L622.481 389.281L622.985 387.517C623.165 386.893 623.513 386.401 624.029 386.041C624.545 385.681 625.109 385.501 625.721 385.501C625.997 385.501 626.261 385.537 626.513 385.609L633.749 387.787L633.083 389.983L632.003 389.659C631.787 389.611 631.661 389.587 631.625 389.587C631.517 389.587 631.391 389.629 631.247 389.713V390.307C631.247 390.487 631.307 390.637 631.427 390.757C631.547 390.877 631.691 390.937 631.859 390.937H634.451C634.619 390.937 634.703 391.021 634.703 391.189V393.493C634.703 393.661 634.619 393.745 634.451 393.745H632.525C631.865 393.745 631.283 393.583 630.779 393.259C630.275 392.923 629.885 392.479 629.609 391.927C629.597 391.831 629.567 391.741 629.519 391.657L629.051 392.161C628.211 393.217 626.843 393.745 624.947 393.745H622.121ZM627.053 395.887H629.411L629.447 398.281H627.053V395.887ZM634.443 393.745C634.383 393.745 634.329 393.721 634.281 393.673C634.221 393.625 634.191 393.565 634.191 393.493V391.207C634.191 391.135 634.221 391.075 634.281 391.027C634.329 390.967 634.383 390.937 634.443 390.937H636.207C636.399 390.937 636.561 390.883 636.693 390.775C636.825 390.655 636.915 390.499 636.963 390.307L637.683 386.833L640.023 387.265L639.447 390.199C639.435 390.235 639.429 390.289 639.429 390.361C639.429 390.529 639.483 390.667 639.591 390.775C639.699 390.883 639.837 390.937 640.005 390.937H641.499C641.571 390.937 641.631 390.967 641.679 391.027C641.727 391.075 641.751 391.135 641.751 391.207V393.493C641.751 393.565 641.727 393.625 641.679 393.673C641.631 393.721 641.571 393.745 641.499 393.745H639.987C639.603 393.745 639.237 393.661 638.889 393.493C638.541 393.313 638.265 393.067 638.061 392.755C637.857 393.055 637.557 393.295 637.161 393.475C636.765 393.655 636.375 393.745 635.991 393.745H634.443ZM637.251 383.107H639.609L639.591 385.465H637.251V383.107ZM641.492 393.745C641.432 393.745 641.378 393.721 641.33 393.673C641.27 393.613 641.24 393.553 641.24 393.493V391.207C641.24 391.135 641.27 391.075 641.33 391.027C641.378 390.967 641.432 390.937 641.492 390.937H642.374C642.554 390.937 642.704 390.871 642.824 390.739C642.944 390.595 643.004 390.433 643.004 390.253V386.833H645.362V390.253C645.362 390.433 645.422 390.595 645.542 390.739C645.674 390.871 645.83 390.937 646.01 390.937H646.604C646.796 390.937 646.958 390.883 647.09 390.775C647.222 390.655 647.306 390.499 647.342 390.307L648.044 386.833L650.456 387.265L649.862 390.181C649.826 390.361 649.868 390.535 649.988 390.703C650.108 390.859 650.258 390.937 650.438 390.937H651.806V386.347H654.2V391.225C654.2 391.669 654.086 392.083 653.858 392.467C653.63 392.851 653.324 393.163 652.94 393.403C652.556 393.631 652.142 393.745 651.698 393.745H650.438C650.018 393.745 649.652 393.673 649.34 393.529C649.04 393.373 648.758 393.115 648.494 392.755C647.978 393.415 647.288 393.745 646.424 393.745C645.512 393.745 644.768 393.415 644.192 392.755C643.568 393.415 642.812 393.745 641.924 393.745H641.492ZM655.854 396.175L658.662 395.275C659.07 395.143 659.4 394.903 659.652 394.555C659.916 394.207 660.048 393.811 660.048 393.367V386.851H662.46V393.115C662.46 394.099 662.166 394.999 661.578 395.815C661.002 396.631 660.246 397.201 659.31 397.525L656.592 398.461L655.854 396.175ZM667.502 393.745C666.878 393.745 666.308 393.595 665.792 393.295C665.276 392.995 664.862 392.587 664.55 392.071C664.25 391.543 664.1 390.973 664.1 390.361V381.145H666.512V390.307C666.512 390.487 666.566 390.637 666.674 390.757C666.794 390.877 666.944 390.937 667.124 390.937H668.024C668.096 390.937 668.156 390.967 668.204 391.027C668.252 391.075 668.276 391.135 668.276 391.207V393.493C668.276 393.661 668.192 393.745 668.024 393.745H667.502ZM668.018 393.745C667.958 393.745 667.904 393.721 667.856 393.673C667.796 393.625 667.766 393.565 667.766 393.493V391.207C667.766 391.135 667.796 391.075 667.856 391.027C667.904 390.967 667.958 390.937 668.018 390.937H669.782C669.974 390.937 670.136 390.883 670.268 390.775C670.4 390.655 670.49 390.499 670.538 390.307L671.258 386.833L673.598 387.265L673.022 390.199C673.01 390.235 673.004 390.289 673.004 390.361C673.004 390.529 673.058 390.667 673.166 390.775C673.274 390.883 673.412 390.937 673.58 390.937H675.074C675.146 390.937 675.206 390.967 675.254 391.027C675.302 391.075 675.326 391.135 675.326 391.207V393.493C675.326 393.565 675.302 393.625 675.254 393.673C675.206 393.721 675.146 393.745 675.074 393.745H673.562C673.178 393.745 672.812 393.661 672.464 393.493C672.116 393.313 671.84 393.067 671.636 392.755C671.432 393.055 671.132 393.295 670.736 393.475C670.34 393.655 669.95 393.745 669.566 393.745H668.018ZM670.358 395.905H672.716L672.752 398.299H670.358V395.905ZM675.067 393.745C675.007 393.745 674.953 393.721 674.905 393.673C674.845 393.625 674.815 393.565 674.815 393.493V391.207C674.815 391.135 674.845 391.075 674.905 391.027C674.953 390.967 675.007 390.937 675.067 390.937H676.831C677.023 390.937 677.185 390.883 677.317 390.775C677.449 390.655 677.539 390.499 677.587 390.307L678.307 386.833L680.647 387.265L680.071 390.199C680.059 390.235 680.053 390.289 680.053 390.361C680.053 390.529 680.107 390.667 680.215 390.775C680.323 390.883 680.461 390.937 680.629 390.937H682.123C682.195 390.937 682.255 390.967 682.303 391.027C682.351 391.075 682.375 391.135 682.375 391.207V393.493C682.375 393.565 682.351 393.625 682.303 393.673C682.255 393.721 682.195 393.745 682.123 393.745H680.611C680.227 393.745 679.861 393.661 679.513 393.493C679.165 393.313 678.889 393.067 678.685 392.755C678.481 393.055 678.181 393.295 677.785 393.475C677.389 393.655 676.999 393.745 676.615 393.745H675.067ZM679.099 383.125H681.475V385.483H679.099V383.125ZM675.805 383.125H678.163V385.483H675.805V383.125ZM683.573 390.937C683.477 390.745 683.393 390.565 683.321 390.397C683.261 390.229 683.213 390.019 683.177 389.767L682.997 388.669C682.973 388.453 682.961 388.297 682.961 388.201C682.961 387.661 683.099 387.163 683.375 386.707C683.651 386.239 684.023 385.867 684.491 385.591C684.959 385.303 685.475 385.159 686.039 385.159H689.441V387.877H685.931C685.751 387.877 685.613 387.943 685.517 388.075C685.421 388.207 685.385 388.363 685.409 388.543L685.877 390.847L689.945 390.415L690.359 393.025L687.029 393.457C685.529 393.649 684.131 393.745 682.835 393.745H682.115C682.043 393.745 681.983 393.721 681.935 393.673C681.887 393.625 681.863 393.565 681.863 393.493V391.207C681.863 391.123 681.887 391.057 681.935 391.009C681.983 390.961 682.049 390.937 682.133 390.937H683.573ZM691.979 381.145H694.391V393.745H691.979V381.145Z" fill="white"/>
<path d="M266.321 399.745C265.757 399.745 265.235 399.601 264.755 399.313C264.287 399.013 263.927 398.599 263.675 398.071C263.243 398.287 262.787 398.395 262.307 398.395H260.867C260.411 398.395 259.979 398.275 259.571 398.035C259.175 397.795 258.857 397.477 258.617 397.081C258.377 396.685 258.257 396.265 258.257 395.821V394.687C258.257 394.207 258.371 393.727 258.599 393.247C258.827 392.767 259.139 392.359 259.535 392.023C259.931 391.675 260.369 391.447 260.849 391.339L263.135 390.835V389.539H265.529V396.199C265.529 396.391 265.601 396.565 265.745 396.721C265.901 396.865 266.093 396.937 266.321 396.937H266.861C267.029 396.937 267.113 397.021 267.113 397.189V399.493C267.113 399.565 267.083 399.625 267.023 399.673C266.975 399.721 266.921 399.745 266.861 399.745H266.321ZM263.135 395.587V393.391L261.533 393.769C261.257 393.829 261.041 393.961 260.885 394.165C260.729 394.357 260.651 394.597 260.651 394.885V395.587H263.135ZM266.867 399.745C266.807 399.745 266.753 399.721 266.705 399.673C266.645 399.625 266.615 399.565 266.615 399.493V397.207C266.615 397.135 266.645 397.075 266.705 397.027C266.753 396.967 266.807 396.937 266.867 396.937H268.631C268.823 396.937 268.985 396.883 269.117 396.775C269.249 396.655 269.339 396.499 269.387 396.307L270.107 392.833L272.447 393.265L271.871 396.199C271.859 396.235 271.853 396.289 271.853 396.361C271.853 396.529 271.907 396.667 272.015 396.775C272.123 396.883 272.261 396.937 272.429 396.937H273.923C273.995 396.937 274.055 396.967 274.103 397.027C274.151 397.075 274.175 397.135 274.175 397.207V399.493C274.175 399.565 274.151 399.625 274.103 399.673C274.055 399.721 273.995 399.745 273.923 399.745H272.411C272.027 399.745 271.661 399.661 271.313 399.493C270.965 399.313 270.689 399.067 270.485 398.755C270.281 399.055 269.981 399.295 269.585 399.475C269.189 399.655 268.799 399.745 268.415 399.745H266.867ZM270.863 401.905H273.239V404.263H270.863V401.905ZM267.569 401.905H269.927V404.263H267.569V401.905ZM273.664 397.189C273.664 397.021 273.748 396.937 273.916 396.937H275.104C275.272 396.937 275.416 396.877 275.536 396.757C275.668 396.637 275.734 396.487 275.734 396.307V387.145H278.092V396.307C278.092 396.931 277.936 397.507 277.624 398.035C277.324 398.551 276.91 398.965 276.382 399.277C275.854 399.589 275.278 399.745 274.654 399.745H273.916C273.856 399.745 273.802 399.721 273.754 399.673C273.694 399.613 273.664 399.553 273.664 399.493V397.189ZM284.76 399.421C284.292 399.637 283.77 399.745 283.194 399.745H282.672C282.12 399.745 281.61 399.601 281.142 399.313C280.674 399.025 280.302 398.647 280.026 398.179C279.762 397.711 279.63 397.207 279.63 396.667C279.63 396.487 279.648 396.307 279.684 396.127L279.99 394.507C280.11 393.799 280.458 393.211 281.034 392.743C281.61 392.263 282.258 392.023 282.978 392.023H283.986C284.574 392.023 285.108 392.167 285.588 392.455C286.08 392.743 286.47 393.133 286.758 393.625C287.046 394.117 287.19 394.645 287.19 395.209V399.115C287.19 400.111 286.902 401.017 286.326 401.833C285.75 402.661 284.988 403.237 284.04 403.561L281.322 404.479L280.62 402.229L283.356 401.293C283.776 401.149 284.112 400.927 284.364 400.627C284.628 400.327 284.76 399.961 284.76 399.529V399.421ZM284.778 395.209C284.778 395.089 284.736 394.987 284.652 394.903C284.568 394.807 284.46 394.759 284.328 394.759H282.726C282.606 394.759 282.51 394.789 282.438 394.849C282.378 394.897 282.336 394.987 282.312 395.119L282.024 396.559V396.613C282.024 396.697 282.054 396.775 282.114 396.847C282.174 396.907 282.252 396.937 282.348 396.937H284.778V395.209ZM288.824 387.145H291.236V399.745H288.824V387.145ZM302.532 399.745C301.968 399.745 301.446 399.601 300.966 399.313C300.498 399.013 300.138 398.599 299.886 398.071C299.454 398.287 298.998 398.395 298.518 398.395H297.078C296.622 398.395 296.19 398.275 295.782 398.035C295.386 397.795 295.068 397.477 294.828 397.081C294.588 396.685 294.468 396.265 294.468 395.821V394.687C294.468 394.207 294.582 393.727 294.81 393.247C295.038 392.767 295.35 392.359 295.746 392.023C296.142 391.675 296.58 391.447 297.06 391.339L299.346 390.835V389.539H301.74V396.199C301.74 396.391 301.812 396.565 301.956 396.721C302.112 396.865 302.304 396.937 302.532 396.937H303.072C303.24 396.937 303.324 397.021 303.324 397.189V399.493C303.324 399.565 303.294 399.625 303.234 399.673C303.186 399.721 303.132 399.745 303.072 399.745H302.532ZM299.346 395.587V393.391L297.744 393.769C297.468 393.829 297.252 393.961 297.096 394.165C296.94 394.357 296.862 394.597 296.862 394.885V395.587H299.346ZM303.078 399.745C303.018 399.745 302.964 399.721 302.916 399.673C302.856 399.613 302.826 399.553 302.826 399.493V397.207C302.826 397.135 302.85 397.075 302.898 397.027C302.946 396.967 303.006 396.937 303.078 396.937H305.472C305.664 396.937 305.814 396.877 305.922 396.757C306.042 396.637 306.102 396.481 306.102 396.289V392.311H308.496V396.271C308.496 396.907 308.34 397.495 308.028 398.035C307.716 398.563 307.296 398.983 306.768 399.295C306.24 399.595 305.664 399.745 305.04 399.745H303.078ZM306.084 388.585H308.442L308.424 390.943H306.084V388.585ZM318.753 396.937C318.921 396.937 319.005 397.021 319.005 397.189V399.493C319.005 399.661 318.921 399.745 318.753 399.745H317.223L317.241 396.937H318.753ZM315.153 399.565C314.901 399.685 314.379 399.745 313.587 399.745H313.065C312.513 399.745 312.003 399.601 311.535 399.313C311.067 399.025 310.695 398.647 310.419 398.179C310.155 397.711 310.023 397.207 310.023 396.667C310.023 396.487 310.041 396.307 310.077 396.127L310.383 394.507C310.503 393.799 310.851 393.211 311.427 392.743C312.003 392.263 312.651 392.023 313.371 392.023H314.379C314.967 392.023 315.501 392.167 315.981 392.455C316.473 392.743 316.863 393.133 317.151 393.625C317.439 394.117 317.583 394.645 317.583 395.209V399.115C317.583 400.111 317.295 401.017 316.719 401.833C316.143 402.661 315.381 403.237 314.433 403.561L311.715 404.479L311.013 402.229L313.749 401.293C314.181 401.149 314.523 400.921 314.775 400.609C315.027 400.309 315.153 400.009 315.153 399.709V399.565ZM315.171 395.209C315.171 395.089 315.129 394.987 315.045 394.903C314.961 394.807 314.853 394.759 314.721 394.759H313.119C312.999 394.759 312.903 394.789 312.831 394.849C312.771 394.897 312.729 394.987 312.705 395.119L312.417 396.559V396.613C312.417 396.697 312.447 396.775 312.507 396.847C312.567 396.907 312.645 396.937 312.741 396.937H315.171V395.209ZM318.758 399.745C318.698 399.745 318.644 399.721 318.596 399.673C318.536 399.613 318.506 399.553 318.506 399.493V397.189C318.506 397.021 318.59 396.937 318.758 396.937H319.334C319.514 396.937 319.67 396.883 319.802 396.775C319.946 396.667 320.036 396.523 320.072 396.343L320.432 394.489C320.552 393.781 320.9 393.193 321.476 392.725C322.052 392.257 322.7 392.023 323.42 392.023H324.428C325.004 392.023 325.532 392.167 326.012 392.455C326.504 392.743 326.894 393.133 327.182 393.625C327.47 394.105 327.614 394.633 327.614 395.209V396.289C327.614 396.469 327.674 396.625 327.794 396.757C327.914 396.877 328.064 396.937 328.244 396.937H328.964C329.036 396.937 329.096 396.961 329.144 397.009C329.192 397.057 329.216 397.117 329.216 397.189V399.493C329.216 399.553 329.186 399.613 329.126 399.673C329.078 399.721 329.024 399.745 328.964 399.745H328.64C327.836 399.745 327.2 399.511 326.732 399.043C326.348 399.511 325.808 399.745 325.112 399.745H323.096C322.28 399.745 321.632 399.427 321.152 398.791C320.876 399.139 320.576 399.385 320.252 399.529C319.928 399.673 319.562 399.745 319.154 399.745H318.758ZM325.22 395.191C325.22 395.071 325.178 394.969 325.094 394.885C325.01 394.789 324.908 394.741 324.788 394.741H323.186C322.958 394.741 322.814 394.867 322.754 395.119L322.448 396.559V396.613C322.448 396.697 322.478 396.775 322.538 396.847C322.61 396.907 322.688 396.937 322.772 396.937H325.22V395.191ZM328.971 399.745C328.911 399.745 328.857 399.721 328.809 399.673C328.749 399.613 328.719 399.553 328.719 399.493V397.207C328.719 397.135 328.743 397.075 328.791 397.027C328.839 396.967 328.899 396.937 328.971 396.937H331.365C331.557 396.937 331.707 396.877 331.815 396.757C331.935 396.637 331.995 396.481 331.995 396.289V392.311H334.389V396.271C334.389 396.907 334.233 397.495 333.921 398.035C333.609 398.563 333.189 398.983 332.661 399.295C332.133 399.595 331.557 399.745 330.933 399.745H328.971ZM331.977 388.585H334.335L334.317 390.943H331.977V388.585Z" fill="white"/>
<path d="M283.978 75.695C283.978 76.043 284.092 76.337 284.32 76.577C284.56 76.817 284.854 76.937 285.202 76.937H292.726C292.906 76.937 293.056 76.877 293.176 76.757C293.296 76.637 293.356 76.493 293.356 76.325V72.815H295.75V76.289C295.75 76.469 295.81 76.625 295.93 76.757C296.05 76.877 296.2 76.937 296.38 76.937H296.92C296.98 76.937 297.034 76.967 297.082 77.027C297.142 77.075 297.172 77.129 297.172 77.189V79.493C297.172 79.553 297.142 79.613 297.082 79.673C297.034 79.721 296.98 79.745 296.92 79.745H296.794C295.906 79.745 295.168 79.415 294.58 78.755C293.956 79.415 293.2 79.745 292.312 79.745H285.472C284.764 79.745 284.11 79.571 283.51 79.223C282.91 78.875 282.436 78.407 282.088 77.819C281.74 77.219 281.566 76.565 281.566 75.857V72.293H283.978V75.695ZM289.144 69.935H291.52V72.293H289.144V69.935ZM285.85 69.935H288.208V72.293H285.85V69.935ZM296.928 79.745C296.76 79.745 296.676 79.661 296.676 79.493V77.207C296.676 77.147 296.706 77.087 296.766 77.027C296.814 76.967 296.868 76.937 296.928 76.937H300.384C301.62 76.937 302.49 76.607 302.994 75.947L303.588 75.173L303.912 74.795L300.366 73.751C300.342 73.739 300.312 73.733 300.276 73.733C300.18 73.733 300.108 73.793 300.06 73.913L299.34 75.821L297.306 75.281L297.792 73.517C297.972 72.893 298.314 72.401 298.818 72.041C299.322 71.669 299.88 71.483 300.492 71.483C300.792 71.483 301.068 71.525 301.32 71.609L308.556 73.787L307.89 75.983L306.918 75.695C306.762 75.647 306.612 75.623 306.468 75.623C306.348 75.623 306.24 75.653 306.144 75.713C306.06 75.761 305.964 75.845 305.856 75.965L303.858 78.161C303.378 78.701 302.778 79.103 302.058 79.367C301.35 79.619 300.582 79.745 299.754 79.745H296.928ZM299.196 67.235H301.554L301.536 69.593H299.196V67.235ZM313.111 79.745C312.487 79.745 311.917 79.595 311.401 79.295C310.885 78.995 310.471 78.587 310.159 78.071C309.859 77.543 309.709 76.973 309.709 76.361V67.145H312.121V76.307C312.121 76.487 312.175 76.637 312.283 76.757C312.403 76.877 312.553 76.937 312.733 76.937H313.633C313.705 76.937 313.765 76.967 313.813 77.027C313.861 77.075 313.885 77.135 313.885 77.207V79.493C313.885 79.661 313.801 79.745 313.633 79.745H313.111ZM313.627 79.745C313.567 79.745 313.513 79.721 313.465 79.673C313.405 79.625 313.375 79.565 313.375 79.493V77.207C313.375 77.135 313.405 77.075 313.465 77.027C313.513 76.967 313.567 76.937 313.627 76.937H315.391C315.583 76.937 315.745 76.883 315.877 76.775C316.009 76.655 316.099 76.499 316.147 76.307L316.867 72.833L319.207 73.265L318.631 76.199C318.619 76.235 318.613 76.289 318.613 76.361C318.613 76.529 318.667 76.667 318.775 76.775C318.883 76.883 319.021 76.937 319.189 76.937H320.683C320.755 76.937 320.815 76.967 320.863 77.027C320.911 77.075 320.935 77.135 320.935 77.207V79.493C320.935 79.565 320.911 79.625 320.863 79.673C320.815 79.721 320.755 79.745 320.683 79.745H319.171C318.787 79.745 318.421 79.661 318.073 79.493C317.725 79.313 317.449 79.067 317.245 78.755C317.041 79.055 316.741 79.295 316.345 79.475C315.949 79.655 315.559 79.745 315.175 79.745H313.627ZM316.435 69.107H318.793L318.775 71.465H316.435V69.107ZM320.676 79.745C320.616 79.745 320.562 79.721 320.514 79.673C320.454 79.613 320.424 79.553 320.424 79.493V77.207C320.424 77.135 320.454 77.075 320.514 77.027C320.562 76.967 320.616 76.937 320.676 76.937H321.558C321.738 76.937 321.888 76.871 322.008 76.739C322.128 76.595 322.188 76.433 322.188 76.253V72.833H324.546V76.253C324.546 76.433 324.606 76.595 324.726 76.739C324.858 76.871 325.014 76.937 325.194 76.937H325.788C325.98 76.937 326.142 76.883 326.274 76.775C326.406 76.655 326.49 76.499 326.526 76.307L327.228 72.833L329.64 73.265L329.046 76.181C329.01 76.361 329.052 76.535 329.172 76.703C329.292 76.859 329.442 76.937 329.622 76.937H330.99V72.347H333.384V77.225C333.384 77.669 333.27 78.083 333.042 78.467C332.814 78.851 332.508 79.163 332.124 79.403C331.74 79.631 331.326 79.745 330.882 79.745H329.622C329.202 79.745 328.836 79.673 328.524 79.529C328.224 79.373 327.942 79.115 327.678 78.755C327.162 79.415 326.472 79.745 325.608 79.745C324.696 79.745 323.952 79.415 323.376 78.755C322.752 79.415 321.996 79.745 321.108 79.745H320.676ZM326.58 66.047H328.938V68.423H326.58V66.047ZM324.942 69.089H327.3V71.447H324.942V69.089ZM328.236 69.089H330.612V71.447H328.236V69.089Z" fill="white"/>
<path d="M447.269 284.243C447.329 284.243 447.383 284.273 447.431 284.333C447.491 284.381 447.521 284.441 447.521 284.513V286.493C447.521 286.553 447.497 286.613 447.449 286.673C447.401 286.721 447.341 286.745 447.269 286.745H446.909C446.441 286.745 445.991 286.625 445.559 286.385C445.139 286.133 444.809 285.815 444.569 285.431C444.365 285.851 444.071 286.175 443.687 286.403C443.303 286.631 442.877 286.745 442.409 286.745H440.069C439.625 286.745 439.211 286.637 438.827 286.421C438.455 286.193 438.155 285.887 437.927 285.503C437.711 285.119 437.603 284.705 437.603 284.261V281.831H439.385V283.811C439.385 283.931 439.421 284.033 439.493 284.117C439.577 284.201 439.679 284.243 439.799 284.243H442.427C442.727 284.243 442.985 284.147 443.201 283.955C443.417 283.751 443.525 283.511 443.525 283.235C443.525 283.187 443.513 283.103 443.489 282.983L442.031 277.727L444.065 276.989L445.883 283.505C445.943 283.733 446.045 283.913 446.189 284.045C446.345 284.177 446.525 284.243 446.729 284.243H447.269ZM447.266 286.745C447.194 286.745 447.134 286.721 447.086 286.673C447.038 286.613 447.014 286.553 447.014 286.493V284.531C447.014 284.459 447.038 284.393 447.086 284.333C447.134 284.273 447.194 284.243 447.266 284.243H450.398C450.626 284.243 450.812 284.171 450.956 284.027C451.112 283.871 451.19 283.679 451.19 283.451V279.635H453.314V283.433C453.314 284.045 453.164 284.603 452.864 285.107C452.576 285.611 452.18 286.013 451.676 286.313C451.172 286.601 450.62 286.745 450.02 286.745H447.266ZM450.83 288.905H452.99V291.083H450.83V288.905ZM447.716 288.905H449.894V291.083H447.716V288.905ZM457.577 286.745C457.133 286.745 456.719 286.637 456.335 286.421C455.951 286.193 455.645 285.887 455.417 285.503C455.201 285.119 455.093 284.705 455.093 284.261V281.849H456.911V283.829C456.911 283.949 456.947 284.051 457.019 284.135C457.091 284.207 457.181 284.243 457.289 284.243H460.259C460.595 284.243 460.859 284.141 461.051 283.937C461.255 283.721 461.357 283.463 461.357 283.163C461.357 282.959 461.303 282.761 461.195 282.569L458.945 278.591L460.763 277.439L463.139 281.651C463.427 282.155 463.571 282.707 463.571 283.307C463.571 283.895 463.427 284.459 463.139 284.999C462.851 285.527 462.455 285.953 461.951 286.277C461.447 286.589 460.883 286.745 460.259 286.745H457.577ZM475.054 286.745C474.49 286.745 473.98 286.607 473.524 286.331C473.068 286.043 472.708 285.635 472.444 285.107C472.024 285.299 471.586 285.395 471.13 285.395H469.528C469.108 285.395 468.712 285.287 468.34 285.071C467.968 284.855 467.674 284.567 467.458 284.207C467.242 283.835 467.134 283.439 467.134 283.019V281.867C467.134 281.135 467.374 280.457 467.854 279.833C468.334 279.197 468.928 278.801 469.636 278.645L471.958 278.105V276.773H474.082V283.343C474.082 283.595 474.172 283.811 474.352 283.991C474.532 284.159 474.766 284.243 475.054 284.243H475.594C475.762 284.243 475.846 284.327 475.846 284.495V286.493C475.846 286.565 475.816 286.625 475.756 286.673C475.708 286.721 475.654 286.745 475.594 286.745H475.054ZM471.958 282.893V280.391L470.212 280.805C469.9 280.877 469.666 281.021 469.51 281.237C469.354 281.441 469.276 281.705 469.276 282.029V282.893H471.958ZM475.602 286.745C475.53 286.745 475.47 286.721 475.422 286.673C475.374 286.613 475.35 286.553 475.35 286.493V284.531C475.35 284.459 475.374 284.393 475.422 284.333C475.47 284.273 475.53 284.243 475.602 284.243H478.734C478.962 284.243 479.148 284.171 479.292 284.027C479.448 283.871 479.526 283.679 479.526 283.451V279.635H481.65V283.433C481.65 284.045 481.5 284.603 481.2 285.107C480.912 285.611 480.516 286.013 480.012 286.313C479.508 286.601 478.956 286.745 478.356 286.745H475.602ZM479.166 288.905H481.326V291.083H479.166V288.905ZM476.052 288.905H478.23V291.083H476.052V288.905ZM488.451 286.457C487.971 286.649 487.473 286.745 486.957 286.745H486.255C485.727 286.745 485.241 286.613 484.797 286.349C484.353 286.073 483.999 285.713 483.735 285.269C483.483 284.825 483.357 284.345 483.357 283.829C483.357 283.661 483.375 283.487 483.411 283.307L483.699 281.687C483.819 281.015 484.149 280.457 484.689 280.013C485.241 279.557 485.859 279.329 486.543 279.329H487.569C488.121 279.329 488.625 279.467 489.081 279.743C489.549 280.007 489.915 280.373 490.179 280.841C490.455 281.309 490.593 281.813 490.593 282.353V286.259C490.593 287.231 490.317 288.107 489.765 288.887C489.213 289.679 488.481 290.231 487.569 290.543L484.995 291.407L484.365 289.409L486.957 288.527C487.413 288.371 487.773 288.125 488.037 287.789C488.313 287.465 488.451 287.075 488.451 286.619V286.457ZM488.451 282.353C488.451 282.185 488.391 282.041 488.271 281.921C488.163 281.801 488.025 281.741 487.857 281.741H486.327C486.027 281.741 485.841 281.903 485.769 282.227L485.499 283.685C485.475 283.817 485.505 283.943 485.589 284.063C485.685 284.183 485.811 284.243 485.967 284.243H488.451V282.353ZM492.428 274.325H494.57V286.745H492.428V274.325ZM494.183 289.283L495.875 288.401C496.247 288.209 496.529 287.945 496.721 287.609C496.925 287.285 497.027 286.829 497.027 286.241V280.175H499.169V286.133C499.169 287.117 498.977 287.933 498.593 288.581C498.221 289.229 497.639 289.781 496.847 290.237L495.173 291.173L494.183 289.283ZM496.973 276.431H499.151L499.133 278.591H496.973V276.431Z" fill="white"/>
<defs>
<clipPath id="clip0_0_420">
<rect width="46" height="46" fill="white" transform="translate(446.106 207.245)"/>
</clipPath>
<clipPath id="clip1_0_420">
<rect width="32.8571" height="32.8571" fill="white" transform="translate(351.677 58.8163)"/>
</clipPath>
<clipPath id="clip2_0_420">
<rect width="32.8571" height="32.8571" fill="white" transform="translate(351.677 376.817)"/>
</clipPath>
<clipPath id="clip3_0_420">
<rect width="32.8571" height="32.8571" fill="white" transform="translate(553.677 371.817)"/>
</clipPath>
<clipPath id="clip4_0_420">
<rect width="32.8571" height="32.8571" fill="white" transform="translate(553.677 60.8163)"/>
</clipPath>
</defs>
</svg>
